<svg xmlns="http://www.w3.org/2000/svg" viewBox="0 0 512 512" width="512" height="512">
  <line x1="120" y1="140" x2="350" y2="30" stroke="black" stroke-width="35" stroke-linecap="round" />
  <circle cx="120" cy="140" r="30" fill="black" />

  <rect x="30" y="140" width="452" height="330" rx="40" ry="40" fill="none" stroke="black" stroke-width="35" />

  <rect x="390" y="110" width="60" height="30" fill="black" />

  <circle cx="110" cy="220" r="30" fill="none" stroke="black" stroke-width="25" />

  <circle cx="110" cy="320" r="25" fill="black" />

  <rect x="85" y="390" width="50" height="30" fill="black" />

  <rect x="180" y="190" width="260" height="40" rx="20" fill="none" stroke="black" stroke-width="20" />
  <line x1="220" y1="195" x2="220" y2="225" stroke="black" stroke-width="10" />
  <line x1="280" y1="195" x2="280" y2="225" stroke="black" stroke-width="10" />
  <line x1="340" y1="195" x2="340" y2="225" stroke="black" stroke-width="10" />
  <line x1="400" y1="195" x2="400" y2="225" stroke="black" stroke-width="10" />

  <line x1="180" y1="280" x2="440" y2="280" stroke="black" stroke-width="25" stroke-linecap="round" />
  <line x1="180" y1="340" x2="440" y2="340" stroke="black" stroke-width="25" stroke-linecap="round" />
  <line x1="180" y1="400" x2="440" y2="400" stroke="black" stroke-width="25" stroke-linecap="round" />
</svg>
